<svg width="17" height="17" viewBox="0 0 17 17" fill="none" xmlns="http://www.w3.org/2000/svg">
<path d="M10.3393 3.78092C11.0443 3.91848 11.6923 4.26329 12.2002 4.77124C12.7082 5.27918 13.053 5.92714 13.1905 6.63219M10.3393 0.893555C11.8041 1.05628 13.17 1.71225 14.2128 2.75374C15.2556 3.79524 15.9133 5.16036 16.0779 6.62497M15.3561 12.3853V14.5508C15.3569 14.7518 15.3157 14.9508 15.2352 15.135C15.1546 15.3192 15.0365 15.4846 14.8884 15.6205C14.7402 15.7564 14.5653 15.8598 14.3749 15.9242C14.1845 15.9886 13.9827 16.0126 13.7824 15.9945C11.5612 15.7531 9.42758 14.9941 7.55296 13.7784C5.80887 12.6701 4.33018 11.1915 3.22191 9.44737C2.00198 7.56424 1.2428 5.42022 1.00586 3.18901C0.987821 2.9894 1.01154 2.78821 1.07552 2.59827C1.13949 2.40833 1.24231 2.23379 1.37744 2.08576C1.51256 1.93774 1.67703 1.81947 1.86037 1.73849C2.04371 1.6575 2.2419 1.61558 2.44232 1.6154H4.60785C4.95816 1.61195 5.29778 1.736 5.56339 1.96443C5.82901 2.19286 6.0025 2.51008 6.05153 2.85696C6.14293 3.54998 6.31244 4.23043 6.55682 4.88534C6.65394 5.1437 6.67495 5.42449 6.61738 5.69443C6.55981 5.96438 6.42606 6.21216 6.23199 6.40842L5.31525 7.32516C6.34283 9.13232 7.83913 10.6286 9.6463 11.6562L10.563 10.7395C10.7593 10.5454 11.0071 10.4116 11.277 10.3541C11.547 10.2965 11.8278 10.3175 12.0861 10.4146C12.741 10.659 13.4215 10.8285 14.1145 10.9199C14.4651 10.9694 14.7854 11.146 15.0143 11.4162C15.2432 11.6864 15.3648 12.0313 15.3561 12.3853Z" stroke="#6D6D6D" stroke-width="1.5" stroke-linecap="round" stroke-linejoin="round"/>
</svg>
