<svg width="446" height="286" viewBox="0 0 446 286" fill="none" xmlns="http://www.w3.org/2000/svg">
<g opacity="0.2">
<rect width="6" height="6" rx="3" fill="white"/>
<rect x="80" width="6" height="6" rx="3" fill="white"/>
<rect x="160" width="6" height="6" rx="3" fill="white"/>
<rect x="240" width="6" height="6" rx="3" fill="white"/>
<rect x="320" width="6" height="6" rx="3" fill="white"/>
<rect x="400" width="6" height="6" rx="3" fill="white"/>
<rect y="80" width="6" height="6" rx="3" fill="white"/>
<rect x="80" y="80" width="6" height="6" rx="3" fill="white"/>
<rect x="160" y="80" width="6" height="6" rx="3" fill="white"/>
<rect x="240" y="80" width="6" height="6" rx="3" fill="white"/>
<rect x="320" y="80" width="6" height="6" rx="3" fill="white"/>
<rect x="400" y="80" width="6" height="6" rx="3" fill="white"/>
<rect y="160" width="6" height="6" rx="3" fill="white"/>
<rect x="80" y="160" width="6" height="6" rx="3" fill="white"/>
<rect x="160" y="160" width="6" height="6" rx="3" fill="white"/>
<rect x="240" y="160" width="6" height="6" rx="3" fill="white"/>
<rect x="320" y="160" width="6" height="6" rx="3" fill="white"/>
<rect x="400" y="160" width="6" height="6" rx="3" fill="white"/>
<rect x="240" y="240" width="6" height="6" rx="3" fill="white"/>
<rect x="320" y="240" width="6" height="6" rx="3" fill="white"/>
<rect x="400" y="240" width="6" height="6" rx="3" fill="white"/>
<rect y="40" width="6" height="6" rx="3" fill="white"/>
<rect x="80" y="40" width="6" height="6" rx="3" fill="white"/>
<rect x="160" y="40" width="6" height="6" rx="3" fill="white"/>
<rect x="240" y="40" width="6" height="6" rx="3" fill="white"/>
<rect x="320" y="40" width="6" height="6" rx="3" fill="white"/>
<rect x="400" y="40" width="6" height="6" rx="3" fill="white"/>
<rect y="120" width="6" height="6" rx="3" fill="white"/>
<rect x="80" y="120" width="6" height="6" rx="3" fill="white"/>
<rect x="160" y="120" width="6" height="6" rx="3" fill="white"/>
<rect x="240" y="120" width="6" height="6" rx="3" fill="white"/>
<rect x="320" y="120" width="6" height="6" rx="3" fill="white"/>
<rect x="400" y="120" width="6" height="6" rx="3" fill="white"/>
<rect y="200" width="6" height="6" rx="3" fill="white"/>
<rect x="80" y="200" width="6" height="6" rx="3" fill="white"/>
<rect x="160" y="200" width="6" height="6" rx="3" fill="white"/>
<rect x="240" y="200" width="6" height="6" rx="3" fill="white"/>
<rect x="320" y="200" width="6" height="6" rx="3" fill="white"/>
<rect x="400" y="200" width="6" height="6" rx="3" fill="white"/>
<rect y="280" width="6" height="6" rx="3" fill="white"/>
<rect x="80" y="280" width="6" height="6" rx="3" fill="white"/>
<rect x="160" y="280" width="6" height="6" rx="3" fill="white"/>
<rect x="240" y="280" width="6" height="6" rx="3" fill="white"/>
<rect x="320" y="280" width="6" height="6" rx="3" fill="white"/>
<rect x="400" y="280" width="6" height="6" rx="3" fill="white"/>
<rect x="40" width="6" height="6" rx="3" fill="white"/>
<rect x="120" width="6" height="6" rx="3" fill="white"/>
<rect x="200" width="6" height="6" rx="3" fill="white"/>
<rect x="280" width="6" height="6" rx="3" fill="white"/>
<rect x="360" width="6" height="6" rx="3" fill="white"/>
<rect x="440" width="6" height="6" rx="3" fill="white"/>
<rect x="40" y="80" width="6" height="6" rx="3" fill="white"/>
<rect x="120" y="80" width="6" height="6" rx="3" fill="white"/>
<rect x="200" y="80" width="6" height="6" rx="3" fill="white"/>
<rect x="280" y="80" width="6" height="6" rx="3" fill="white"/>
<rect x="360" y="80" width="6" height="6" rx="3" fill="white"/>
<rect x="440" y="80" width="6" height="6" rx="3" fill="white"/>
<rect x="40" y="160" width="6" height="6" rx="3" fill="white"/>
<rect x="120" y="160" width="6" height="6" rx="3" fill="white"/>
<rect x="200" y="160" width="6" height="6" rx="3" fill="white"/>
<rect x="280" y="160" width="6" height="6" rx="3" fill="white"/>
<rect x="360" y="160" width="6" height="6" rx="3" fill="white"/>
<rect x="440" y="160" width="6" height="6" rx="3" fill="white"/>
<rect x="200" y="240" width="6" height="6" rx="3" fill="white"/>
<rect x="280" y="240" width="6" height="6" rx="3" fill="white"/>
<rect x="360" y="240" width="6" height="6" rx="3" fill="white"/>
<rect x="440" y="240" width="6" height="6" rx="3" fill="white"/>
<rect x="40" y="40" width="6" height="6" rx="3" fill="white"/>
<rect x="120" y="40" width="6" height="6" rx="3" fill="white"/>
<rect x="200" y="40" width="6" height="6" rx="3" fill="white"/>
<rect x="280" y="40" width="6" height="6" rx="3" fill="white"/>
<rect x="360" y="40" width="6" height="6" rx="3" fill="white"/>
<rect x="440" y="40" width="6" height="6" rx="3" fill="white"/>
<rect x="40" y="120" width="6" height="6" rx="3" fill="white"/>
<rect x="120" y="120" width="6" height="6" rx="3" fill="white"/>
<rect x="200" y="120" width="6" height="6" rx="3" fill="white"/>
<rect x="280" y="120" width="6" height="6" rx="3" fill="white"/>
<rect x="360" y="120" width="6" height="6" rx="3" fill="white"/>
<rect x="440" y="120" width="6" height="6" rx="3" fill="white"/>
<rect x="40" y="200" width="6" height="6" rx="3" fill="white"/>
<rect x="120" y="200" width="6" height="6" rx="3" fill="white"/>
<rect x="200" y="200" width="6" height="6" rx="3" fill="white"/>
<rect x="280" y="200" width="6" height="6" rx="3" fill="white"/>
<rect x="360" y="200" width="6" height="6" rx="3" fill="white"/>
<rect x="440" y="200" width="6" height="6" rx="3" fill="white"/>
<rect x="40" y="280" width="6" height="6" rx="3" fill="white"/>
<rect x="120" y="280" width="6" height="6" rx="3" fill="white"/>
<rect x="200" y="280" width="6" height="6" rx="3" fill="white"/>
<rect x="280" y="280" width="6" height="6" rx="3" fill="white"/>
<rect x="360" y="280" width="6" height="6" rx="3" fill="white"/>
<rect x="440" y="280" width="6" height="6" rx="3" fill="white"/>
</g>
</svg>
